<mxfile host="app.diagrams.net" modified="2024-06-18T10:46:21.546Z" agent="Mozilla/5.0 (Windows NT 10.0; Win64; x64) AppleWebKit/537.36 (KHTML, like Gecko) Chrome/125.0.0.0 Safari/537.36" etag="aBYnEVndI-G3D-rzJFx_" version="24.5.5" type="google">
  <diagram name="Page-1" id="zcXhnzmGqlLOUNkQ2Wlm">
    <mxGraphModel grid="1" page="1" gridSize="10" guides="1" tooltips="1" connect="1" arrows="1" fold="1" pageScale="1" pageWidth="1100" pageHeight="850" math="0" shadow="0">
      <root>
        <mxCell id="0" />
        <mxCell id="1" parent="0" />
        <mxCell id="he31ZCd5w7QOWA7zzLgd-146" value="" style="group" connectable="0" vertex="1" parent="1">
          <mxGeometry x="110" y="205" width="880" height="440" as="geometry" />
        </mxCell>
        <mxCell id="b_ETZcMZM8DXvsEqn4xj-36" value=":Sniffer" style="shape=umlLifeline;perimeter=lifelinePerimeter;whiteSpace=wrap;html=1;container=1;collapsible=0;recursiveResize=0;outlineConnect=0;rounded=1;shadow=0;comic=0;labelBackgroundColor=none;strokeWidth=1;fontFamily=Times New Roman;fontSize=12;align=center;verticalAlign=middle;" vertex="1" parent="he31ZCd5w7QOWA7zzLgd-146">
          <mxGeometry x="110" y="50" width="100" height="290" as="geometry" />
        </mxCell>
        <mxCell id="he31ZCd5w7QOWA7zzLgd-15" value="" style="endArrow=classic;html=1;rounded=0;dashed=1;" edge="1" parent="b_ETZcMZM8DXvsEqn4xj-36">
          <mxGeometry width="50" height="50" relative="1" as="geometry">
            <mxPoint x="159.50000000000045" y="210" as="sourcePoint" />
            <mxPoint x="60" y="210" as="targetPoint" />
          </mxGeometry>
        </mxCell>
        <mxCell id="b_ETZcMZM8DXvsEqn4xj-11" value=":Node-RED" style="shape=umlLifeline;perimeter=lifelinePerimeter;whiteSpace=wrap;html=1;container=1;collapsible=0;recursiveResize=0;outlineConnect=0;rounded=1;shadow=0;comic=0;labelBackgroundColor=none;strokeWidth=1;fontFamily=Times New Roman;fontSize=12;align=center;verticalAlign=middle;" vertex="1" parent="he31ZCd5w7QOWA7zzLgd-146">
          <mxGeometry y="50" width="100" height="390" as="geometry" />
        </mxCell>
        <mxCell id="he31ZCd5w7QOWA7zzLgd-13" value="" style="html=1;points=[];perimeter=orthogonalPerimeter;rounded=0;shadow=0;comic=0;labelBackgroundColor=none;strokeWidth=1;fontFamily=Times New Roman;fontSize=12;align=center;verticalAlign=middle;" vertex="1" parent="b_ETZcMZM8DXvsEqn4xj-11">
          <mxGeometry x="40" y="60" width="20" height="310" as="geometry" />
        </mxCell>
        <mxCell id="he31ZCd5w7QOWA7zzLgd-28" value="T1" style="html=1;points=[];perimeter=orthogonalPerimeter;rounded=0;shadow=0;comic=0;labelBackgroundColor=none;strokeWidth=1;fontFamily=Times New Roman;fontSize=12;align=center;verticalAlign=middle;" vertex="1" parent="b_ETZcMZM8DXvsEqn4xj-11">
          <mxGeometry x="50" y="70" width="30" height="30" as="geometry" />
        </mxCell>
        <mxCell id="he31ZCd5w7QOWA7zzLgd-38" value="T5" style="html=1;points=[];perimeter=orthogonalPerimeter;rounded=0;shadow=0;comic=0;labelBackgroundColor=none;strokeWidth=1;fontFamily=Times New Roman;fontSize=12;align=center;verticalAlign=middle;" vertex="1" parent="b_ETZcMZM8DXvsEqn4xj-11">
          <mxGeometry x="50" y="270" width="30" height="30" as="geometry" />
        </mxCell>
        <mxCell id="he31ZCd5w7QOWA7zzLgd-37" value="" style="endArrow=classic;html=1;rounded=0;dashed=1;" edge="1" parent="b_ETZcMZM8DXvsEqn4xj-11">
          <mxGeometry width="50" height="50" relative="1" as="geometry">
            <mxPoint x="159.5" y="260.0000000000001" as="sourcePoint" />
            <mxPoint x="60" y="260" as="targetPoint" />
          </mxGeometry>
        </mxCell>
        <mxCell id="he31ZCd5w7QOWA7zzLgd-141" value="&lt;font style=&quot;font-size: 12px;&quot; face=&quot;Times New Roman&quot;&gt;Response&lt;/font&gt;" style="edgeLabel;html=1;align=center;verticalAlign=middle;resizable=0;points=[];" connectable="0" vertex="1" parent="he31ZCd5w7QOWA7zzLgd-37">
          <mxGeometry x="-0.1519" y="1" relative="1" as="geometry">
            <mxPoint x="-7" y="-11" as="offset" />
          </mxGeometry>
        </mxCell>
        <mxCell id="b_ETZcMZM8DXvsEqn4xj-1" value=":S7" style="shape=umlLifeline;perimeter=lifelinePerimeter;whiteSpace=wrap;html=1;container=1;collapsible=0;recursiveResize=0;outlineConnect=0;rounded=1;shadow=0;comic=0;labelBackgroundColor=none;strokeWidth=1;fontFamily=Times New Roman;fontSize=12;align=center;verticalAlign=middle;" vertex="1" parent="he31ZCd5w7QOWA7zzLgd-146">
          <mxGeometry x="220" y="50" width="100" height="250" as="geometry" />
        </mxCell>
        <mxCell id="he31ZCd5w7QOWA7zzLgd-16" value="" style="endArrow=classic;html=1;rounded=0;" edge="1" parent="b_ETZcMZM8DXvsEqn4xj-1" source="b_ETZcMZM8DXvsEqn4xj-36">
          <mxGeometry width="50" height="50" relative="1" as="geometry">
            <mxPoint x="-60.21428571428578" y="159.61" as="sourcePoint" />
            <mxPoint x="40" y="159.61000000000007" as="targetPoint" />
          </mxGeometry>
        </mxCell>
        <mxCell id="b_ETZcMZM8DXvsEqn4xj-16" value="Composer" style="shape=note;whiteSpace=wrap;html=1;size=14;verticalAlign=middle;align=center;spacingTop=-6;rounded=0;shadow=0;comic=0;labelBackgroundColor=none;strokeWidth=1;fontFamily=Times New Roman;fontSize=12" vertex="1" parent="he31ZCd5w7QOWA7zzLgd-146">
          <mxGeometry width="100" height="35" as="geometry" />
        </mxCell>
        <mxCell id="b_ETZcMZM8DXvsEqn4xj-17" value="PLC" style="shape=note;whiteSpace=wrap;html=1;size=14;verticalAlign=middle;align=center;spacingTop=-6;rounded=0;shadow=0;comic=0;labelBackgroundColor=none;strokeWidth=1;fontFamily=Times New Roman;fontSize=12" vertex="1" parent="he31ZCd5w7QOWA7zzLgd-146">
          <mxGeometry x="220" width="100" height="35" as="geometry" />
        </mxCell>
        <mxCell id="b_ETZcMZM8DXvsEqn4xj-23" value=":Sensor" style="shape=umlLifeline;perimeter=lifelinePerimeter;whiteSpace=wrap;html=1;container=1;collapsible=0;recursiveResize=0;outlineConnect=0;rounded=1;shadow=0;comic=0;labelBackgroundColor=none;strokeWidth=1;fontFamily=Times New Roman;fontSize=12;align=center;verticalAlign=middle;" vertex="1" parent="he31ZCd5w7QOWA7zzLgd-146">
          <mxGeometry x="330" y="50" width="100" height="390" as="geometry" />
        </mxCell>
        <mxCell id="b_ETZcMZM8DXvsEqn4xj-31" value="Asset" style="shape=note;whiteSpace=wrap;html=1;size=14;verticalAlign=middle;align=center;spacingTop=-6;rounded=0;shadow=0;comic=0;labelBackgroundColor=none;strokeWidth=1;fontFamily=Times New Roman;fontSize=12" vertex="1" parent="he31ZCd5w7QOWA7zzLgd-146">
          <mxGeometry x="330" width="100" height="35" as="geometry" />
        </mxCell>
        <mxCell id="b_ETZcMZM8DXvsEqn4xj-35" value="Sniffer" style="shape=note;whiteSpace=wrap;html=1;size=14;verticalAlign=middle;align=center;spacingTop=-6;rounded=0;shadow=0;comic=0;labelBackgroundColor=none;strokeWidth=1;fontFamily=Times New Roman;fontSize=12" vertex="1" parent="he31ZCd5w7QOWA7zzLgd-146">
          <mxGeometry x="110" width="100" height="35" as="geometry" />
        </mxCell>
        <mxCell id="he31ZCd5w7QOWA7zzLgd-14" value="" style="endArrow=classic;html=1;rounded=0;" edge="1" parent="he31ZCd5w7QOWA7zzLgd-146">
          <mxGeometry width="50" height="50" relative="1" as="geometry">
            <mxPoint x="60" y="160" as="sourcePoint" />
            <mxPoint x="150" y="160" as="targetPoint" />
          </mxGeometry>
        </mxCell>
        <mxCell id="he31ZCd5w7QOWA7zzLgd-137" value="&lt;font style=&quot;font-size: 12px;&quot; face=&quot;Times New Roman&quot;&gt;Read&lt;/font&gt;" style="edgeLabel;html=1;align=center;verticalAlign=middle;resizable=0;points=[];" connectable="0" vertex="1" parent="he31ZCd5w7QOWA7zzLgd-14">
          <mxGeometry x="0.3661" y="2" relative="1" as="geometry">
            <mxPoint x="-11" y="-8" as="offset" />
          </mxGeometry>
        </mxCell>
        <mxCell id="he31ZCd5w7QOWA7zzLgd-18" value="" style="endArrow=classic;html=1;rounded=0;" edge="1" parent="he31ZCd5w7QOWA7zzLgd-146">
          <mxGeometry width="50" height="50" relative="1" as="geometry">
            <mxPoint x="60.08999999999992" y="360.0000000000001" as="sourcePoint" />
            <mxPoint x="369.99717948717944" y="360.0000000000001" as="targetPoint" />
          </mxGeometry>
        </mxCell>
        <mxCell id="he31ZCd5w7QOWA7zzLgd-138" value="&lt;font style=&quot;font-size: 12px;&quot; face=&quot;Times New Roman&quot;&gt;Write&lt;/font&gt;" style="edgeLabel;html=1;align=center;verticalAlign=middle;resizable=0;points=[];" connectable="0" vertex="1" parent="he31ZCd5w7QOWA7zzLgd-18">
          <mxGeometry x="-0.0048" y="2" relative="1" as="geometry">
            <mxPoint x="-4" y="-8" as="offset" />
          </mxGeometry>
        </mxCell>
        <mxCell id="he31ZCd5w7QOWA7zzLgd-39" value="" style="html=1;points=[];perimeter=orthogonalPerimeter;rounded=0;shadow=0;comic=0;labelBackgroundColor=none;strokeWidth=1;fontFamily=Times New Roman;fontSize=12;align=center;verticalAlign=middle;" vertex="1" parent="he31ZCd5w7QOWA7zzLgd-146">
          <mxGeometry x="370" y="360" width="20" height="60" as="geometry" />
        </mxCell>
        <mxCell id="he31ZCd5w7QOWA7zzLgd-96" value="" style="html=1;points=[];perimeter=orthogonalPerimeter;rounded=0;shadow=0;comic=0;labelBackgroundColor=none;strokeWidth=1;fontFamily=Times New Roman;fontSize=12;align=center;verticalAlign=middle;" vertex="1" parent="he31ZCd5w7QOWA7zzLgd-146">
          <mxGeometry x="150" y="160" width="20" height="60" as="geometry" />
        </mxCell>
        <mxCell id="he31ZCd5w7QOWA7zzLgd-97" value="T2" style="html=1;points=[];perimeter=orthogonalPerimeter;rounded=0;shadow=0;comic=0;labelBackgroundColor=none;strokeWidth=1;fontFamily=Times New Roman;fontSize=12;align=center;verticalAlign=middle;" vertex="1" parent="he31ZCd5w7QOWA7zzLgd-146">
          <mxGeometry x="160" y="170" width="30" height="30" as="geometry" />
        </mxCell>
        <mxCell id="he31ZCd5w7QOWA7zzLgd-98" value="" style="html=1;points=[];perimeter=orthogonalPerimeter;rounded=0;shadow=0;comic=0;labelBackgroundColor=none;strokeWidth=1;fontFamily=Times New Roman;fontSize=12;align=center;verticalAlign=middle;" vertex="1" parent="he31ZCd5w7QOWA7zzLgd-146">
          <mxGeometry x="260" y="210" width="20" height="60" as="geometry" />
        </mxCell>
        <mxCell id="he31ZCd5w7QOWA7zzLgd-99" value="T3" style="html=1;points=[];perimeter=orthogonalPerimeter;rounded=0;shadow=0;comic=0;labelBackgroundColor=none;strokeWidth=1;fontFamily=Times New Roman;fontSize=12;align=center;verticalAlign=middle;" vertex="1" parent="he31ZCd5w7QOWA7zzLgd-146">
          <mxGeometry x="270" y="220" width="30" height="30" as="geometry" />
        </mxCell>
        <mxCell id="he31ZCd5w7QOWA7zzLgd-100" value="" style="html=1;points=[];perimeter=orthogonalPerimeter;rounded=0;shadow=0;comic=0;labelBackgroundColor=none;strokeWidth=1;fontFamily=Times New Roman;fontSize=12;align=center;verticalAlign=middle;" vertex="1" parent="he31ZCd5w7QOWA7zzLgd-146">
          <mxGeometry x="150" y="260" width="20" height="60" as="geometry" />
        </mxCell>
        <mxCell id="he31ZCd5w7QOWA7zzLgd-101" value="T4" style="html=1;points=[];perimeter=orthogonalPerimeter;rounded=0;shadow=0;comic=0;labelBackgroundColor=none;strokeWidth=1;fontFamily=Times New Roman;fontSize=12;align=center;verticalAlign=middle;" vertex="1" parent="he31ZCd5w7QOWA7zzLgd-146">
          <mxGeometry x="160" y="270" width="30" height="30" as="geometry" />
        </mxCell>
        <mxCell id="he31ZCd5w7QOWA7zzLgd-103" value=":Sniffer" style="shape=umlLifeline;perimeter=lifelinePerimeter;whiteSpace=wrap;html=1;container=1;collapsible=0;recursiveResize=0;outlineConnect=0;rounded=1;shadow=0;comic=0;labelBackgroundColor=none;strokeWidth=1;fontFamily=Times New Roman;fontSize=12;align=center;verticalAlign=middle;" vertex="1" parent="he31ZCd5w7QOWA7zzLgd-146">
          <mxGeometry x="560" y="50" width="100" height="290" as="geometry" />
        </mxCell>
        <mxCell id="he31ZCd5w7QOWA7zzLgd-105" value=":Node-RED" style="shape=umlLifeline;perimeter=lifelinePerimeter;whiteSpace=wrap;html=1;container=1;collapsible=0;recursiveResize=0;outlineConnect=0;rounded=1;shadow=0;comic=0;labelBackgroundColor=none;strokeWidth=1;fontFamily=Times New Roman;fontSize=12;align=center;verticalAlign=middle;" vertex="1" parent="he31ZCd5w7QOWA7zzLgd-146">
          <mxGeometry x="450" y="50" width="100" height="340" as="geometry" />
        </mxCell>
        <mxCell id="he31ZCd5w7QOWA7zzLgd-110" value=":S7" style="shape=umlLifeline;perimeter=lifelinePerimeter;whiteSpace=wrap;html=1;container=1;collapsible=0;recursiveResize=0;outlineConnect=0;rounded=1;shadow=0;comic=0;labelBackgroundColor=none;strokeWidth=1;fontFamily=Times New Roman;fontSize=12;align=center;verticalAlign=middle;" vertex="1" parent="he31ZCd5w7QOWA7zzLgd-146">
          <mxGeometry x="670" y="50" width="100" height="330" as="geometry" />
        </mxCell>
        <mxCell id="he31ZCd5w7QOWA7zzLgd-112" value="Composer" style="shape=note;whiteSpace=wrap;html=1;size=14;verticalAlign=middle;align=center;spacingTop=-6;rounded=0;shadow=0;comic=0;labelBackgroundColor=none;strokeWidth=1;fontFamily=Times New Roman;fontSize=12" vertex="1" parent="he31ZCd5w7QOWA7zzLgd-146">
          <mxGeometry x="450" width="100" height="35" as="geometry" />
        </mxCell>
        <mxCell id="he31ZCd5w7QOWA7zzLgd-113" value="PLC" style="shape=note;whiteSpace=wrap;html=1;size=14;verticalAlign=middle;align=center;spacingTop=-6;rounded=0;shadow=0;comic=0;labelBackgroundColor=none;strokeWidth=1;fontFamily=Times New Roman;fontSize=12" vertex="1" parent="he31ZCd5w7QOWA7zzLgd-146">
          <mxGeometry x="670" width="100" height="35" as="geometry" />
        </mxCell>
        <mxCell id="he31ZCd5w7QOWA7zzLgd-114" value=":Sensor" style="shape=umlLifeline;perimeter=lifelinePerimeter;whiteSpace=wrap;html=1;container=1;collapsible=0;recursiveResize=0;outlineConnect=0;rounded=1;shadow=0;comic=0;labelBackgroundColor=none;strokeWidth=1;fontFamily=Times New Roman;fontSize=12;align=center;verticalAlign=middle;" vertex="1" parent="he31ZCd5w7QOWA7zzLgd-146">
          <mxGeometry x="780" y="50" width="100" height="190" as="geometry" />
        </mxCell>
        <mxCell id="he31ZCd5w7QOWA7zzLgd-116" value="Asset" style="shape=note;whiteSpace=wrap;html=1;size=14;verticalAlign=middle;align=center;spacingTop=-6;rounded=0;shadow=0;comic=0;labelBackgroundColor=none;strokeWidth=1;fontFamily=Times New Roman;fontSize=12" vertex="1" parent="he31ZCd5w7QOWA7zzLgd-146">
          <mxGeometry x="780" width="100" height="35" as="geometry" />
        </mxCell>
        <mxCell id="he31ZCd5w7QOWA7zzLgd-117" value="Sniffer" style="shape=note;whiteSpace=wrap;html=1;size=14;verticalAlign=middle;align=center;spacingTop=-6;rounded=0;shadow=0;comic=0;labelBackgroundColor=none;strokeWidth=1;fontFamily=Times New Roman;fontSize=12" vertex="1" parent="he31ZCd5w7QOWA7zzLgd-146">
          <mxGeometry x="560" width="100" height="35" as="geometry" />
        </mxCell>
        <mxCell id="he31ZCd5w7QOWA7zzLgd-106" value="" style="html=1;points=[];perimeter=orthogonalPerimeter;rounded=0;shadow=0;comic=0;labelBackgroundColor=none;strokeWidth=1;fontFamily=Times New Roman;fontSize=12;align=center;verticalAlign=middle;" vertex="1" parent="he31ZCd5w7QOWA7zzLgd-146">
          <mxGeometry x="490" y="110" width="20" height="260" as="geometry" />
        </mxCell>
        <mxCell id="he31ZCd5w7QOWA7zzLgd-107" value="T9" style="html=1;points=[];perimeter=orthogonalPerimeter;rounded=0;shadow=0;comic=0;labelBackgroundColor=none;strokeWidth=1;fontFamily=Times New Roman;fontSize=12;align=center;verticalAlign=middle;" vertex="1" parent="he31ZCd5w7QOWA7zzLgd-146">
          <mxGeometry x="500" y="220" width="30" height="30" as="geometry" />
        </mxCell>
        <mxCell id="he31ZCd5w7QOWA7zzLgd-111" value="" style="endArrow=classic;html=1;rounded=0;" edge="1" parent="he31ZCd5w7QOWA7zzLgd-146">
          <mxGeometry width="50" height="50" relative="1" as="geometry">
            <mxPoint x="609.1666666666665" y="309.6100000000001" as="sourcePoint" />
            <mxPoint x="710" y="309.6100000000001" as="targetPoint" />
          </mxGeometry>
        </mxCell>
        <mxCell id="he31ZCd5w7QOWA7zzLgd-115" value="" style="endArrow=classic;html=1;rounded=0;dashed=1;" edge="1" parent="he31ZCd5w7QOWA7zzLgd-146" target="he31ZCd5w7QOWA7zzLgd-106">
          <mxGeometry width="50" height="50" relative="1" as="geometry">
            <mxPoint x="819.5" y="210" as="sourcePoint" />
            <mxPoint x="720" y="210" as="targetPoint" />
          </mxGeometry>
        </mxCell>
        <mxCell id="he31ZCd5w7QOWA7zzLgd-142" value="&lt;font face=&quot;Times New Roman&quot; style=&quot;font-size: 12px;&quot;&gt;Response&lt;/font&gt;" style="edgeLabel;html=1;align=center;verticalAlign=middle;resizable=0;points=[];" connectable="0" vertex="1" parent="he31ZCd5w7QOWA7zzLgd-115">
          <mxGeometry x="0.559" y="-2" relative="1" as="geometry">
            <mxPoint x="-9" y="-8" as="offset" />
          </mxGeometry>
        </mxCell>
        <mxCell id="he31ZCd5w7QOWA7zzLgd-118" value="" style="endArrow=classic;html=1;rounded=0;" edge="1" parent="he31ZCd5w7QOWA7zzLgd-146">
          <mxGeometry width="50" height="50" relative="1" as="geometry">
            <mxPoint x="510" y="260" as="sourcePoint" />
            <mxPoint x="600" y="260" as="targetPoint" />
          </mxGeometry>
        </mxCell>
        <mxCell id="he31ZCd5w7QOWA7zzLgd-140" value="&lt;font face=&quot;Times New Roman&quot; style=&quot;font-size: 12px;&quot;&gt;Write&lt;/font&gt;" style="edgeLabel;html=1;align=center;verticalAlign=middle;resizable=0;points=[];" connectable="0" vertex="1" parent="he31ZCd5w7QOWA7zzLgd-118">
          <mxGeometry x="0.1796" y="1" relative="1" as="geometry">
            <mxPoint x="-3" y="-9" as="offset" />
          </mxGeometry>
        </mxCell>
        <mxCell id="he31ZCd5w7QOWA7zzLgd-120" value="" style="endArrow=classic;html=1;rounded=0;" edge="1" parent="he31ZCd5w7QOWA7zzLgd-146">
          <mxGeometry width="50" height="50" relative="1" as="geometry">
            <mxPoint x="510.0899999999999" y="160" as="sourcePoint" />
            <mxPoint x="819.9971794871794" y="160" as="targetPoint" />
          </mxGeometry>
        </mxCell>
        <mxCell id="he31ZCd5w7QOWA7zzLgd-139" value="&lt;font face=&quot;Times New Roman&quot; style=&quot;font-size: 12px;&quot;&gt;Read&lt;/font&gt;" style="edgeLabel;html=1;align=center;verticalAlign=middle;resizable=0;points=[];" connectable="0" vertex="1" parent="he31ZCd5w7QOWA7zzLgd-120">
          <mxGeometry x="-0.6438" y="4" relative="1" as="geometry">
            <mxPoint x="-6" y="-6" as="offset" />
          </mxGeometry>
        </mxCell>
        <mxCell id="he31ZCd5w7QOWA7zzLgd-122" value="" style="html=1;points=[];perimeter=orthogonalPerimeter;rounded=0;shadow=0;comic=0;labelBackgroundColor=none;strokeWidth=1;fontFamily=Times New Roman;fontSize=12;align=center;verticalAlign=middle;" vertex="1" parent="he31ZCd5w7QOWA7zzLgd-146">
          <mxGeometry x="820" y="160" width="20" height="60" as="geometry" />
        </mxCell>
        <mxCell id="he31ZCd5w7QOWA7zzLgd-123" value="T8" style="html=1;points=[];perimeter=orthogonalPerimeter;rounded=0;shadow=0;comic=0;labelBackgroundColor=none;strokeWidth=1;fontFamily=Times New Roman;fontSize=12;align=center;verticalAlign=middle;" vertex="1" parent="he31ZCd5w7QOWA7zzLgd-146">
          <mxGeometry x="830" y="175" width="30" height="30" as="geometry" />
        </mxCell>
        <mxCell id="he31ZCd5w7QOWA7zzLgd-124" value="" style="html=1;points=[];perimeter=orthogonalPerimeter;rounded=0;shadow=0;comic=0;labelBackgroundColor=none;strokeWidth=1;fontFamily=Times New Roman;fontSize=12;align=center;verticalAlign=middle;" vertex="1" parent="he31ZCd5w7QOWA7zzLgd-146">
          <mxGeometry x="600" y="260" width="20" height="60" as="geometry" />
        </mxCell>
        <mxCell id="he31ZCd5w7QOWA7zzLgd-125" value="T10" style="html=1;points=[];perimeter=orthogonalPerimeter;rounded=0;shadow=0;comic=0;labelBackgroundColor=none;strokeWidth=1;fontFamily=Times New Roman;fontSize=12;align=center;verticalAlign=middle;" vertex="1" parent="he31ZCd5w7QOWA7zzLgd-146">
          <mxGeometry x="610" y="270" width="30" height="30" as="geometry" />
        </mxCell>
        <mxCell id="he31ZCd5w7QOWA7zzLgd-126" value="" style="html=1;points=[];perimeter=orthogonalPerimeter;rounded=0;shadow=0;comic=0;labelBackgroundColor=none;strokeWidth=1;fontFamily=Times New Roman;fontSize=12;align=center;verticalAlign=middle;" vertex="1" parent="he31ZCd5w7QOWA7zzLgd-146">
          <mxGeometry x="710" y="310" width="20" height="60" as="geometry" />
        </mxCell>
        <mxCell id="he31ZCd5w7QOWA7zzLgd-127" value="T11" style="html=1;points=[];perimeter=orthogonalPerimeter;rounded=0;shadow=0;comic=0;labelBackgroundColor=none;strokeWidth=1;fontFamily=Times New Roman;fontSize=12;align=center;verticalAlign=middle;" vertex="1" parent="he31ZCd5w7QOWA7zzLgd-146">
          <mxGeometry x="720" y="320" width="30" height="30" as="geometry" />
        </mxCell>
        <mxCell id="he31ZCd5w7QOWA7zzLgd-130" value="T6" style="html=1;points=[];perimeter=orthogonalPerimeter;rounded=0;shadow=0;comic=0;labelBackgroundColor=none;strokeWidth=1;fontFamily=Times New Roman;fontSize=12;align=center;verticalAlign=middle;" vertex="1" parent="he31ZCd5w7QOWA7zzLgd-146">
          <mxGeometry x="380" y="370" width="30" height="30" as="geometry" />
        </mxCell>
        <mxCell id="he31ZCd5w7QOWA7zzLgd-132" value="T7" style="html=1;points=[];perimeter=orthogonalPerimeter;rounded=0;shadow=0;comic=0;labelBackgroundColor=none;strokeWidth=1;fontFamily=Times New Roman;fontSize=12;align=center;verticalAlign=middle;" vertex="1" parent="he31ZCd5w7QOWA7zzLgd-146">
          <mxGeometry x="500" y="120" width="30" height="30" as="geometry" />
        </mxCell>
      </root>
    </mxGraphModel>
  </diagram>
</mxfile>
